<?xml version="1.0" standalone="no"?>
<!DOCTYPE svg PUBLIC "-//W3C//DTD SVG 20010904//EN"
 "http://www.w3.org/TR/2001/REC-SVG-20010904/DTD/svg10.dtd">
<svg version="1.0" xmlns="http://www.w3.org/2000/svg"
 width="512.000000pt" height="512.000000pt" viewBox="0 0 512.000000 512.000000"
 preserveAspectRatio="xMidYMid meet">
<metadata>
Created by potrace 1.14, written by Peter Selinger 2001-2017
</metadata>
<g transform="translate(0.000000,512.000000) scale(0.100000,-0.100000)"
fill="#000000" stroke="none">
<path d="M2994 4987 c-180 -178 -180 -164 -1 -344 175 -174 157 -174 327 -7
71 69 133 138 138 153 16 44 -7 77 -140 209 -166 162 -150 163 -324 -11z m224
-224 l-58 -58 -55 55 -55 54 57 58 58 58 55 -55 55 -55 -57 -57z"/>
<path d="M1574 4825 c-43 -18 -274 -258 -274 -285 0 -39 27 -74 148 -192 165
-161 153 -162 329 16 174 175 174 158 6 327 -69 71 -138 132 -153 137 -18 7
-36 6 -56 -3z m88 -348 l-57 -57 -55 55 -55 55 54 54 54 55 58 -52 58 -52 -57
-58z"/>
<path d="M3758 4530 c-9 -6 -33 -34 -54 -63 -55 -77 -129 -152 -211 -213 -112
-83 -110 -118 9 -207 82 -62 137 -117 195 -197 52 -72 65 -82 105 -78 27 2 41
14 83 68 27 36 75 90 105 120 30 30 84 78 120 105 54 42 66 56 68 83 4 41 -4
51 -93 117 -80 60 -134 115 -194 197 -54 76 -89 93 -133 68z m119 -457 l-81
-82 -82 81 -81 82 81 81 81 81 82 -80 81 -81 -81 -82z"/>
<path d="M2139 4331 c-52 -17 -81 -46 -191 -195 -165 -221 -181 -262 -139
-351 11 -22 101 -137 200 -255 l181 -215 -33 -9 c-307 -84 -542 -215 -760
-425 -645 -620 -687 -1640 -94 -2311 262 -297 610 -487 1007 -551 110 -18 390
-18 500 0 474 76 887 340 1145 731 137 208 220 419 261 666 20 119 23 383 5
499 -54 349 -205 663 -438 908 -82 86 -114 97 -158 52 -45 -44 -35 -72 61
-182 232 -265 355 -551 384 -894 17 -195 -7 -407 -66 -587 -165 -499 -566
-875 -1070 -1003 -851 -215 -1696 326 -1865 1193 -33 170 -30 406 7 587 101
494 472 927 948 1105 97 37 235 76 268 76 9 0 44 -33 78 -72 78 -93 118 -118
190 -118 72 0 112 25 190 118 34 39 67 72 75 72 27 0 141 -30 225 -59 109 -37
183 -71 280 -126 42 -25 86 -45 98 -45 34 0 75 42 75 78 0 41 -21 63 -104 111
-130 75 -237 118 -446 179 -20 6 -6 27 158 222 100 118 189 233 200 255 25 53
24 102 -4 156 -41 80 -246 347 -285 371 -37 23 -38 23 -447 25 -225 1 -422 -2
-436 -6z m191 -158 c0 -4 -21 -58 -47 -120 l-47 -113 -36 0 c-39 0 -79 -29
-81 -58 -4 -60 17 -90 72 -98 44 -7 34 13 104 -228 25 -87 45 -160 43 -162 -5
-4 -370 433 -381 456 -7 14 17 53 107 174 l116 156 75 0 c41 0 75 -3 75 -7z
m331 -113 c27 -63 49 -116 49 -117 0 -2 -67 -3 -150 -3 -82 0 -150 1 -150 3 0
2 15 39 34 83 19 43 41 96 50 117 15 38 16 38 67 35 l52 -3 48 -115z m364 7
c47 -63 85 -117 85 -120 0 -4 -51 -7 -113 -7 l-113 0 -47 113 c-26 62 -47 116
-47 120 0 4 34 7 75 7 l75 0 85 -113z m-307 -304 c-53 -190 -153 -523 -158
-523 -5 0 -105 333 -158 523 -4 16 8 17 158 17 150 0 162 -1 158 -17z m341
-45 c-29 -35 -102 -122 -163 -195 -60 -73 -112 -131 -114 -129 -3 4 31 126 84
304 l25 82 110 0 111 0 -53 -62z"/>
<path d="M2455 2934 c-142 -19 -192 -30 -275 -56 -288 -92 -538 -289 -698
-549 -192 -315 -234 -712 -113 -1064 52 -150 133 -288 240 -413 76 -88 111
-109 152 -91 35 14 49 36 49 77 0 22 -16 47 -64 101 -175 195 -271 428 -283
688 -18 390 165 749 492 967 310 207 700 241 1046 90 346 -150 591 -474 650
-857 17 -113 6 -299 -25 -420 -27 -106 -92 -253 -153 -344 -47 -72 -170 -202
-243 -257 -333 -254 -771 -298 -1150 -117 -78 37 -121 40 -150 9 -24 -26 -26
-80 -4 -103 27 -26 163 -91 252 -119 234 -74 519 -75 750 -5 436 135 767 497
867 949 25 114 31 326 12 447 -84 527 -491 949 -1011 1048 -81 16 -285 27
-341 19z"/>
</g>
</svg>
